<svg width="900" height="514" viewBox="0 0 900 514" fill="none" xmlns="http://www.w3.org/2000/svg">
<path d="M228.062 103.798L130.557 6.27995C124.807 0.543606 115.505 0.611478 109.829 6.27262C104.122 11.9948 104.122 21.2858 109.829 27.0007L207.348 124.512C213.061 130.225 222.348 130.225 228.062 124.512C233.79 118.784 233.79 109.526 228.062 103.798Z" fill="#F2F2F2"/>
<path d="M102.595 40.481L101.862 44.1597C96.6921 70.0181 84.1286 94.5841 67.1359 114.495L120.186 167.545C140.095 150.556 164.322 137.655 190.182 132.479L193.867 131.745L102.595 40.481Z" fill="#F2F2F2"/>
<path d="M57.4098 125.483L21.1534 161.732C12.5865 170.299 12.5508 184.207 21.1534 192.81L41.8673 213.524C50.4342 222.091 64.3425 222.126 72.945 213.524L109.198 177.271L57.4098 125.483ZM62.5885 182.453C59.7277 185.314 55.0924 185.314 52.2316 182.453C49.3707 179.593 49.3707 174.957 52.2316 172.097L62.5885 161.74C65.4494 158.879 70.0846 158.879 72.9455 161.74C75.8063 164.6 75.8063 169.236 72.9455 172.097L62.5885 182.453Z" fill="#F2F2F2"/>
<path d="M139.779 217.421L149.742 207.458C158.345 198.856 158.317 184.948 149.743 176.388L142.342 168.982C138.252 171.73 134.346 174.715 130.548 177.901L139.386 186.752C142.24 189.591 142.26 194.212 139.386 197.102L129.258 207.23L114.374 192.809L93.6589 213.524L126.89 245.725C132.561 251.41 141.872 251.443 147.597 245.717C153.311 240.003 153.311 230.712 147.597 224.996L139.779 217.421Z" fill="#F2F2F2"/>
<path d="M169.367 0C165.319 0 162.043 3.27589 162.043 7.32423V21.9727C162.043 26.021 165.319 29.2969 169.367 29.2969C173.416 29.2969 176.692 26.021 176.692 21.9727V7.32423C176.692 3.27589 173.416 0 169.367 0Z" fill="#F2F2F2"/>
<path d="M227.961 58.5938H213.313C209.264 58.5938 205.989 61.8696 205.989 65.918C205.989 69.9663 209.264 73.2422 213.313 73.2422H227.961C232.01 73.2422 235.285 69.9663 235.285 65.918C235.285 61.8696 232.01 58.5938 227.961 58.5938Z" fill="#F2F2F2"/>
<path d="M218.491 16.7941C215.63 13.9332 210.995 13.9332 208.134 16.7941L193.486 31.4425C190.625 34.3034 190.625 38.9386 193.486 41.7995C196.347 44.6603 200.982 44.6608 203.843 41.7995L218.491 27.151C221.352 24.2902 221.352 19.6549 218.491 16.7941Z" fill="#F2F2F2"/>
<path d="M770.444 215.001L770.485 235.25L807.631 198.417C807.631 198.413 770.739 215.001 770.444 215.001Z" fill="url(#paint0_linear)"/>
<path d="M807.631 198.414C807.631 198.414 770.746 214.994 770.447 214.994L770.482 235.25L773.021 216.955L770.876 215.29" fill="url(#paint1_linear)"/>
<path d="M755.092 203.256L790.021 229.965L833.235 184.474L755.092 203.256Z" fill="url(#paint2_linear)"/>
<path d="M770.451 214.998L833.252 184.522L773.025 216.955L770.451 214.998Z" fill="url(#paint3_linear)"/>
<path d="M151.135 358.84H149.419V352.033H151.135V358.84ZM151.135 345.227H149.419V338.42H151.135V345.227ZM151.135 331.614H149.419V324.807H151.135V331.614ZM151.135 318.001H149.419V311.194H151.135V318.001ZM151.135 304.388H149.419V297.581H151.135V304.388ZM151.135 290.775H149.419V283.968H151.135V290.775ZM151.135 277.162H149.419V270.355H151.135V277.162ZM151.135 263.549H149.419V256.742H151.135V263.549ZM151.135 249.936H149.419V243.129H151.135V249.936ZM151.135 236.322H149.419V229.516H151.135V236.322ZM151.135 222.709H149.419V215.903H151.135V222.709ZM151.135 209.096H149.419V202.29H151.135V209.096ZM151.135 195.483H149.419V188.677H151.135V195.483ZM151.135 181.87H149.419V175.064H151.135V181.87ZM151.135 168.257H149.419V161.451H151.135V168.257ZM151.135 154.644H149.419V147.838H151.135V154.644ZM151.135 141.031H149.419V134.225H151.135V141.031ZM151.135 127.418H149.419V120.612H151.135V127.418ZM151.135 113.805H149.419V106.998H151.135V113.805ZM151.135 100.192H149.419V93.3854H151.135V100.192ZM151.135 86.5789H149.419V79.7723H151.135V86.5789ZM151.135 72.9658H149.419V66.1593H151.135V72.9658ZM377.994 61.3879H371.129V59.6863H377.994V61.3879ZM364.265 61.3879H357.401V59.6863H364.265V61.3879ZM350.536 61.3879H343.672V59.6863H350.536V61.3879ZM336.808 61.3879H329.943V59.6863H336.808V61.3879ZM323.079 61.3879H316.215V59.6863H323.079V61.3879ZM309.351 61.3879H302.486V59.6863H309.351V61.3879ZM295.622 61.3879H288.758V59.6863H295.622V61.3879ZM281.893 61.3879H275.029V59.6863H281.893V61.3879ZM268.165 61.3879H261.3V59.6863H268.165V61.3879ZM254.436 61.3879H247.572V59.6863H254.436V61.3879ZM240.707 61.3879H233.843V59.6863H240.707V61.3879ZM226.979 61.3879H220.114V59.6863H226.979V61.3879ZM213.25 61.3879H206.386V59.6863H213.25V61.3879ZM199.521 61.3879H192.657V59.6863H199.521V61.3879ZM185.793 61.3879H178.929V59.6863H185.793V61.3879ZM172.064 61.3879H165.2V59.6863H172.064V61.3879ZM158.336 61.3879H151.471V59.6863H158.336V61.3879Z" fill="url(#paint4_linear)"/>
<path d="M760.171 224.949H757.563V223.247H760.171V224.949ZM750.699 224.949H743.834V223.247H750.699V224.949ZM736.97 224.949H730.106V223.247H736.97V224.949ZM723.241 224.949H716.377V223.247H723.241V224.949ZM715.732 218.779H714.016V211.972H715.732V218.779ZM715.732 205.166H714.016V198.359H715.732V205.166ZM715.732 191.553H714.016V184.746H715.732V191.553ZM715.732 177.939H714.016V171.133H715.732V177.939ZM715.732 164.326H714.016V157.52H715.732V164.326ZM715.732 150.713H714.016V143.907H715.732V150.713ZM715.732 137.1H714.016V130.294H715.732V137.1ZM715.732 123.487H714.016V116.681H715.732V123.487ZM715.732 109.874H714.016V103.068H715.732V109.874ZM715.732 96.2646H714.016V89.458H715.732V96.2646ZM715.732 82.6515H714.016V75.845H715.732V82.6515ZM715.732 69.0385H714.016V62.2319H715.732V69.0385ZM709.719 61.3879H702.854V59.6863H709.719V61.3879ZM695.99 61.3879H689.126V59.6863H695.99V61.3879ZM682.261 61.3879H675.397V59.6863H682.261V61.3879ZM668.533 61.3879H661.668V59.6863H668.533V61.3879ZM654.804 61.3879H647.94V59.6863H654.804V61.3879ZM641.075 61.3879H634.211V59.6863H641.075V61.3879ZM627.347 61.3879H620.483V59.6863H627.347V61.3879ZM613.618 61.3879H606.754V59.6863H613.618V61.3879ZM599.89 61.3879H593.025V59.6863H599.89V61.3879ZM586.161 61.3879H579.297V59.6863H586.161V61.3879ZM572.432 61.3879H565.568V59.6863H572.432V61.3879ZM558.704 61.3879H551.839V59.6863H558.704V61.3879ZM544.975 61.3879H538.111V59.6863H544.975V61.3879ZM531.246 61.3879H524.382V59.6863H531.246V61.3879ZM517.518 61.3879H510.653V59.6863H517.518V61.3879ZM503.789 61.3879H496.925V59.6863H503.789V61.3879ZM490.06 61.3879H483.196V59.6863H490.06V61.3879ZM476.332 61.3879H469.468V59.6863H476.332V61.3879Z" fill="url(#paint5_linear)"/>
<path opacity="0.56" d="M106.76 354.579C127.673 412.526 167.479 454.193 211.953 484.165C260.717 482.123 327.28 480.602 403.488 479.887C406.848 479.853 410.225 479.823 413.623 479.795C423.339 479.714 433.203 479.646 443.198 479.591C449.386 479.554 455.626 479.526 461.913 479.503C462.143 479.503 462.373 479.499 462.603 479.499C464.326 479.492 466.049 479.489 467.779 479.482C468.036 479.482 468.29 479.479 468.548 479.479C471.949 479.469 475.367 479.458 478.796 479.452C486.944 479.435 495.161 479.424 503.442 479.424C556.782 479.424 607.533 479.806 653.52 480.49C666.116 480.68 678.355 480.891 690.19 481.123C712.708 481.565 733.771 482.086 753.07 482.671C756.791 482.787 760.449 482.899 764.036 483.018C766.854 483.114 769.627 483.205 772.359 483.301C776.062 483.43 779.69 483.563 783.232 483.695C792.67 484.056 801.529 484.434 809.759 484.829C810.119 484.846 810.473 484.863 810.83 484.88C812.91 483.41 814.959 481.916 816.98 480.408C817.56 479.972 818.14 479.533 818.717 479.094C819.338 478.628 819.953 478.155 820.567 477.682C821.751 476.766 822.925 475.848 824.085 474.918C858.678 447.321 883.671 413.84 894.132 374.886C913.692 302.063 883.187 204.032 819.867 164.384C808.599 157.326 797.774 152.861 787.093 150.23C782.065 148.991 777.068 148.157 772.07 147.654C769.747 147.419 767.423 147.256 765.096 147.153C763.308 147.075 761.52 147.034 759.725 147.031C757.436 147.017 755.14 147.065 752.837 147.157C751.073 147.228 749.308 147.327 747.534 147.45C745.21 147.61 742.873 147.814 740.522 148.052C735.573 148.549 730.562 149.195 725.458 149.927C706.345 152.663 685.947 156.536 662.767 157.85C659.458 158.037 656.094 158.173 652.666 158.245C645.376 158.398 637.805 158.269 629.917 157.751C625.003 157.428 619.961 156.951 614.788 156.301C601.739 154.661 587.836 151.904 572.92 147.623C539.027 137.9 514.384 124.345 494.059 109.667C488.485 105.644 483.234 101.536 478.209 97.3978C474.365 94.2361 470.655 91.0575 467.027 87.889C459.651 81.4433 452.629 75.0315 445.576 68.8648C442.333 66.0299 439.083 63.246 435.788 60.5336C435.324 60.1524 434.861 59.7713 434.394 59.3935C410.983 40.3352 385.122 25.041 343.641 20.7494C339.831 20.3547 336.008 20.0654 332.178 19.8816C267.581 16.7404 200.784 42.9217 155.597 88.5425C80.9265 163.915 79.2139 278.244 106.76 354.579Z" fill="#E9F0FF"/>
<path opacity="0.56" d="M883.653 354.579C862.741 412.526 822.935 454.193 778.461 484.165C729.697 482.123 663.134 480.602 586.926 479.887C583.566 479.853 580.189 479.823 576.791 479.795C567.075 479.714 557.211 479.646 547.216 479.591C541.028 479.554 534.788 479.526 528.501 479.503C528.271 479.503 528.041 479.499 527.811 479.499C526.088 479.492 524.365 479.489 522.635 479.482C522.378 479.482 522.124 479.479 521.866 479.479C518.465 479.469 515.047 479.458 511.618 479.452C503.47 479.435 495.253 479.424 486.972 479.424C433.632 479.424 382.881 479.806 336.894 480.49C324.298 480.68 312.058 480.891 300.224 481.123C277.706 481.565 256.643 482.086 237.344 482.671C233.623 482.787 229.965 482.899 226.378 483.018C223.56 483.114 220.787 483.205 218.055 483.301C214.352 483.43 210.724 483.563 207.182 483.695C197.744 484.056 188.885 484.434 180.655 484.829C180.294 484.846 179.941 484.863 179.584 484.88C177.504 483.41 175.455 481.916 173.434 480.408C172.854 479.972 172.274 479.533 171.697 479.094C171.076 478.628 170.461 478.155 169.847 477.682C168.663 476.766 167.489 475.848 166.329 474.918C131.736 447.321 106.743 413.84 96.2821 374.886C76.7222 302.063 107.227 204.032 170.547 164.384C181.815 157.326 192.64 152.861 203.321 150.23C208.349 148.991 213.346 148.157 218.343 147.654C220.667 147.419 222.991 147.256 225.318 147.153C227.106 147.075 228.894 147.034 230.689 147.031C232.978 147.017 235.274 147.065 237.577 147.157C239.341 147.228 241.105 147.327 242.88 147.45C245.203 147.61 247.541 147.814 249.892 148.052C254.841 148.549 259.852 149.195 264.956 149.927C284.069 152.663 304.467 156.536 327.647 157.85C330.956 158.037 334.319 158.173 337.748 158.245C345.038 158.398 352.609 158.269 360.496 157.751C365.411 157.428 370.453 156.951 375.625 156.301C388.675 154.661 402.578 151.904 417.494 147.623C451.387 137.9 476.03 124.345 496.355 109.667C501.929 105.644 507.18 101.536 512.205 97.3978C516.049 94.2361 519.759 91.0575 523.387 87.889C530.762 81.4433 537.785 75.0315 544.838 68.8648C548.081 66.0299 551.331 63.246 554.626 60.5336C555.09 60.1524 555.553 59.7713 556.02 59.3935C579.43 40.3352 605.292 25.041 646.773 20.7494C650.583 20.3547 654.406 20.0654 658.236 19.8816C722.833 16.7404 789.63 42.9217 834.817 88.5425C909.487 163.915 911.2 278.244 883.653 354.579Z" fill="#E9F0FF"/>
<path opacity="0.27" d="M500.134 504.057C698.897 504.057 860.026 498.519 860.026 491.686C860.026 484.854 698.897 479.315 500.134 479.315C301.371 479.315 140.241 484.854 140.241 491.686C140.241 498.519 301.371 504.057 500.134 504.057Z" fill="url(#paint6_linear)"/>
<path d="M810.195 282.947V474.343C810.195 479.897 805.658 484.4 800.056 484.4H678.136C675.04 484.4 672.274 483.028 670.413 480.864C668.907 479.104 667.997 476.831 667.997 474.347V282.947C667.997 277.396 672.535 272.894 678.136 272.894H800.056C802.418 272.894 804.594 273.694 806.317 275.038L806.33 275.048C808.685 276.889 810.195 279.745 810.195 282.947Z" fill="#6BB6FF"/>
<path d="M781.447 330.242H696.745C688.947 330.242 682.625 323.973 682.625 316.241V306.127C682.625 298.394 688.947 292.125 696.745 292.125H781.447C789.245 292.125 795.567 298.394 795.567 306.127V316.241C795.567 323.97 789.245 330.242 781.447 330.242Z" fill="#F5F8FF"/>
<path d="M694.847 365.956H689.585C684.245 365.956 679.913 361.661 679.913 356.366V353.367C679.913 348.072 684.245 343.777 689.585 343.777H694.847C700.187 343.777 704.519 348.072 704.519 353.367V356.366C704.519 361.661 700.187 365.956 694.847 365.956Z" fill="url(#paint7_linear)"/>
<path d="M726.1 365.956H720.838C715.498 365.956 711.167 361.661 711.167 356.366V353.367C711.167 348.072 715.498 343.777 720.838 343.777H726.1C731.44 343.777 735.772 348.072 735.772 353.367V356.366C735.772 361.661 731.44 365.956 726.1 365.956Z" fill="url(#paint8_linear)"/>
<path d="M757.353 365.956H752.092C746.751 365.956 742.42 361.661 742.42 356.366V353.367C742.42 348.072 746.751 343.777 752.092 343.777H757.353C762.694 343.777 767.025 348.072 767.025 353.367V356.366C767.025 361.661 762.697 365.956 757.353 365.956Z" fill="url(#paint9_linear)"/>
<path d="M788.61 365.956H783.348C778.008 365.956 773.676 361.661 773.676 356.366V353.367C773.676 348.072 778.008 343.777 783.348 343.777H788.61C793.95 343.777 798.282 348.072 798.282 353.367V356.366C798.278 361.661 793.95 365.956 788.61 365.956Z" fill="url(#paint10_linear)"/>
<path d="M694.847 392.988H689.585C684.245 392.988 679.913 388.693 679.913 383.398V380.399C679.913 375.104 684.245 370.809 689.585 370.809H694.847C700.187 370.809 704.519 375.104 704.519 380.399V383.398C704.519 388.693 700.187 392.988 694.847 392.988Z" fill="url(#paint11_linear)"/>
<path d="M726.1 392.988H720.838C715.498 392.988 711.167 388.693 711.167 383.398V380.399C711.167 375.104 715.498 370.809 720.838 370.809H726.1C731.44 370.809 735.772 375.104 735.772 380.399V383.398C735.772 388.693 731.44 392.988 726.1 392.988Z" fill="url(#paint12_linear)"/>
<path d="M757.353 392.988H752.092C746.751 392.988 742.42 388.693 742.42 383.398V380.399C742.42 375.104 746.751 370.809 752.092 370.809H757.353C762.694 370.809 767.025 375.104 767.025 380.399V383.398C767.025 388.693 762.697 392.988 757.353 392.988Z" fill="url(#paint13_linear)"/>
<path d="M788.61 392.988H783.348C778.008 392.988 773.676 388.693 773.676 383.398V380.399C773.676 375.104 778.008 370.809 783.348 370.809H788.61C793.95 370.809 798.282 375.104 798.282 380.399V383.398C798.278 388.693 793.95 392.988 788.61 392.988Z" fill="url(#paint14_linear)"/>
<path d="M694.847 420.02H689.585C684.245 420.02 679.913 415.725 679.913 410.43V407.432C679.913 402.136 684.245 397.841 689.585 397.841H694.847C700.187 397.841 704.519 402.136 704.519 407.432V410.43C704.519 415.729 700.187 420.02 694.847 420.02Z" fill="url(#paint15_linear)"/>
<path d="M726.1 420.02H720.838C715.498 420.02 711.167 415.725 711.167 410.43V407.432C711.167 402.136 715.498 397.841 720.838 397.841H726.1C731.44 397.841 735.772 402.136 735.772 407.432V410.43C735.772 415.729 731.44 420.02 726.1 420.02Z" fill="url(#paint16_linear)"/>
<path d="M757.353 420.02H752.092C746.751 420.02 742.42 415.725 742.42 410.43V407.432C742.42 402.136 746.751 397.841 752.092 397.841H757.353C762.694 397.841 767.025 402.136 767.025 407.432V410.43C767.025 415.729 762.697 420.02 757.353 420.02Z" fill="url(#paint17_linear)"/>
<path d="M788.61 420.02H783.348C778.008 420.02 773.676 415.725 773.676 410.43V407.432C773.676 402.136 778.008 397.841 783.348 397.841H788.61C793.95 397.841 798.282 402.136 798.282 407.432V410.43C798.278 415.729 793.95 420.02 788.61 420.02Z" fill="url(#paint18_linear)"/>
<path d="M694.847 447.056H689.585C684.245 447.056 679.913 442.761 679.913 437.465V434.467C679.913 429.171 684.245 424.876 689.585 424.876H694.847C700.187 424.876 704.518 429.171 704.518 434.467V437.465C704.518 442.761 700.187 447.056 694.847 447.056Z" fill="url(#paint19_linear)"/>
<path d="M726.1 447.056H720.838C715.498 447.056 711.167 442.761 711.167 437.466V434.467C711.167 429.172 715.498 424.877 720.838 424.877H726.1C731.44 424.877 735.772 429.172 735.772 434.467V437.466C735.772 442.761 731.44 447.056 726.1 447.056Z" fill="url(#paint20_linear)"/>
<path d="M757.353 447.056H752.092C746.751 447.056 742.42 442.761 742.42 437.466V434.467C742.42 429.172 746.751 424.877 752.092 424.877H757.353C762.694 424.877 767.025 429.172 767.025 434.467V437.466C767.025 442.761 762.697 447.056 757.353 447.056Z" fill="url(#paint21_linear)"/>
<path d="M788.61 474.088H783.348C778.008 474.088 773.676 469.793 773.676 464.497V434.464C773.676 429.168 778.008 424.873 783.348 424.873H788.61C793.95 424.873 798.282 429.168 798.282 434.464V464.497C798.278 469.796 793.95 474.088 788.61 474.088Z" fill="url(#paint22_linear)"/>
<path d="M694.847 474.088H689.585C684.245 474.088 679.913 469.793 679.913 464.497V461.499C679.913 456.204 684.245 451.909 689.585 451.909H694.847C700.187 451.909 704.519 456.204 704.519 461.499V464.497C704.519 469.796 700.187 474.088 694.847 474.088Z" fill="url(#paint23_linear)"/>
<path d="M726.1 474.088H720.838C715.498 474.088 711.167 469.793 711.167 464.497V461.499C711.167 456.204 715.498 451.909 720.838 451.909H726.1C731.44 451.909 735.772 456.204 735.772 461.499V464.497C735.772 469.796 731.44 474.088 726.1 474.088Z" fill="url(#paint24_linear)"/>
<path d="M757.353 474.088H752.092C746.751 474.088 742.42 469.793 742.42 464.497V461.499C742.42 456.204 746.751 451.909 752.092 451.909H757.353C762.694 451.909 767.025 456.204 767.025 461.499V464.497C767.025 469.796 762.697 474.088 757.353 474.088Z" fill="url(#paint25_linear)"/>
<path d="M695.159 157.976V426.687C695.159 435.662 687.821 442.938 678.771 442.938H276.282C270.663 442.938 265.704 440.134 262.749 435.856C260.947 433.246 259.893 430.087 259.893 426.687V157.976C259.893 149.002 267.231 141.725 276.282 141.725H678.771C683.215 141.725 687.241 143.478 690.193 146.33C693.258 149.277 695.159 153.405 695.159 157.976Z" fill="url(#paint26_linear)"/>
<path d="M664.04 398.978H291.013C281.962 398.978 274.624 391.702 274.624 382.728V172.624C274.624 163.649 281.962 156.373 291.013 156.373H664.04C673.091 156.373 680.429 163.649 680.429 172.624V382.724C680.429 391.702 673.091 398.978 664.04 398.978Z" fill="#F5F8FF"/>
<path d="M492.43 424.129C493.765 415.973 488.179 408.288 479.954 406.964C471.729 405.641 463.979 411.179 462.644 419.335C461.309 427.491 466.895 435.176 475.12 436.5C483.345 437.823 491.095 432.285 492.43 424.129Z" fill="#F5F8FF"/>
<path d="M484.621 428.77C488.543 424.881 488.543 418.577 484.621 414.688C480.699 410.799 474.341 410.799 470.419 414.688C466.497 418.577 466.497 424.881 470.419 428.77C474.341 432.659 480.699 432.659 484.621 428.77Z" fill="#748FFE"/>
<path d="M525.676 484.587H432.236C429.977 484.587 428.985 481.769 430.75 480.374C434.642 477.301 439.591 473.108 442.203 469.793C445.048 466.189 446.129 457.143 446.537 450.544C446.805 446.215 446.785 442.938 446.785 442.938H511.124C511.124 442.938 511.028 458.385 513.997 466.506V466.509C514.481 467.829 515.047 468.959 515.702 469.793C518.314 473.108 523.267 477.301 527.155 480.374C528.923 481.766 527.935 484.587 525.676 484.587Z" fill="url(#paint27_linear)"/>
<path d="M319.551 381.356H643.2C643.657 381.356 644.027 380.988 644.027 380.536V373.072C644.027 372.62 643.657 372.252 643.2 372.252H319.551C319.095 372.252 318.724 372.62 318.724 373.072V380.536C318.724 380.988 319.095 381.356 319.551 381.356Z" fill="#F5F8FF"/>
<path d="M497.045 381.356H643.2C643.657 381.356 644.027 380.988 644.027 380.536V373.072C644.027 372.62 643.657 372.252 643.2 372.252H497.045C496.589 372.252 496.218 372.62 496.218 373.072V380.536C496.218 380.988 496.589 381.356 497.045 381.356Z" fill="url(#paint28_linear)"/>
<path d="M499.689 384.793C504.139 384.793 507.747 381.215 507.747 376.802C507.747 372.389 504.139 368.811 499.689 368.811C495.238 368.811 491.63 372.389 491.63 376.802C491.63 381.215 495.238 384.793 499.689 384.793Z" fill="url(#paint29_linear)"/>
<path d="M581.047 259.835H649.549C657.286 259.835 663.553 253.618 663.553 245.95V200.656C663.553 192.985 657.282 186.771 649.549 186.771H581.047C573.311 186.771 567.044 192.989 567.044 200.656V245.947C567.044 253.618 573.314 259.835 581.047 259.835Z" fill="url(#paint30_linear)"/>
<path d="M582.701 250.912H647.898C653.829 250.912 658.638 246.144 658.638 240.263V201.851C658.638 195.97 653.829 191.202 647.898 191.202H582.701C576.77 191.202 571.962 195.97 571.962 201.851V240.267C571.965 246.144 576.77 250.912 582.701 250.912Z" fill="url(#paint31_linear)"/>
<path opacity="0.89" d="M615.3 258.253C616.886 258.253 618.172 256.978 618.172 255.405C618.172 253.831 616.886 252.556 615.3 252.556C613.713 252.556 612.427 253.831 612.427 255.405C612.427 256.978 613.713 258.253 615.3 258.253Z" fill="url(#paint32_linear)"/>
<path d="M582.245 239.889H651.156C651.612 239.889 651.983 239.521 651.983 239.069V238.735C651.983 238.283 651.612 237.915 651.156 237.915H582.245C581.788 237.915 581.418 238.283 581.418 238.735V239.069C581.418 239.521 581.788 239.889 582.245 239.889Z" fill="url(#paint33_linear)"/>
<path d="M620.747 239.889H651.156C651.612 239.889 651.983 239.521 651.983 239.069V238.735C651.983 238.283 651.612 237.915 651.156 237.915H620.747C620.29 237.915 619.92 238.283 619.92 238.735V239.069C619.92 239.521 620.29 239.889 620.747 239.889Z" fill="url(#paint34_linear)"/>
<path d="M620.675 240.634C621.639 240.634 622.422 239.859 622.422 238.902C622.422 237.945 621.639 237.17 620.675 237.17C619.71 237.17 618.928 237.945 618.928 238.902C618.928 239.859 619.71 240.634 620.675 240.634Z" fill="url(#paint35_linear)"/>
<path d="M606.689 221.232L606.713 233.324L628.898 211.325C628.901 211.329 606.867 221.232 606.689 221.232Z" fill="url(#paint36_linear)"/>
<path d="M628.901 211.329C628.901 211.329 606.87 221.229 606.695 221.229L606.716 233.328L608.233 222.4L606.953 221.406" fill="url(#paint37_linear)"/>
<path d="M597.521 214.222L618.382 230.173L644.192 203.001L597.521 214.222Z" fill="url(#paint38_linear)"/>
<path d="M606.695 221.233L644.202 203.032L608.233 222.4L606.695 221.233Z" fill="url(#paint39_linear)"/>
<path d="M647.181 282.09V344.829C647.181 349.655 643.234 353.565 638.371 353.565H575.099C570.232 353.565 566.289 349.655 566.289 344.829V282.09C566.289 277.267 570.232 273.354 575.099 273.354H638.371C643.234 273.354 647.181 277.267 647.181 282.09Z" fill="url(#paint40_linear)"/>
<path d="M629.259 313.457C629.259 325.794 619.171 335.793 606.733 335.793C594.295 335.793 584.208 325.791 584.208 313.457C584.208 301.124 594.295 291.122 606.733 291.122V299.834C599.145 299.834 592.994 305.933 592.994 313.457C592.994 320.982 599.145 327.084 606.733 327.084C614.322 327.084 620.476 320.985 620.476 313.457H629.259Z" fill="white"/>
<path opacity="0.5" d="M629.258 313.457H620.472C620.472 305.933 614.322 299.834 606.73 299.834V291.122C619.175 291.125 629.258 301.124 629.258 313.457Z" fill="white"/>
<path d="M556.843 194.585V350.464C556.843 356.825 551.644 361.984 545.226 361.984H313.733C307.319 361.984 302.119 356.829 302.119 350.468V194.585C302.119 188.224 307.319 183.065 313.737 183.065H545.226C551.64 183.065 556.843 188.224 556.843 194.585Z" fill="url(#paint41_linear)"/>
<path d="M546.077 201.173V343.876C546.077 349.699 541.316 354.422 535.44 354.422H323.518C317.646 354.422 312.885 349.702 312.885 343.879V201.173C312.885 195.35 317.646 190.627 323.522 190.627H535.44C541.313 190.627 546.077 195.35 546.077 201.173Z" fill="url(#paint42_linear)"/>
<path d="M556.843 194.585V207.612H302.119V194.585C302.119 188.224 307.319 183.065 313.737 183.065H545.226C551.64 183.065 556.843 188.224 556.843 194.585Z" fill="url(#paint43_linear)"/>
<path d="M331.862 195.34C331.862 197.804 329.847 199.802 327.362 199.802C324.877 199.802 322.863 197.804 322.863 195.34C322.863 192.876 324.877 190.879 327.362 190.879C329.847 190.879 331.862 192.876 331.862 195.34Z" fill="white"/>
<path opacity="0.5" d="M349.218 195.34C349.218 197.804 347.203 199.802 344.719 199.802C342.234 199.802 340.219 197.804 340.219 195.34C340.219 192.876 342.234 190.879 344.719 190.879C347.203 190.879 349.218 192.876 349.218 195.34Z" fill="white"/>
<path opacity="0.5" d="M366.578 195.34C366.578 197.804 364.563 199.802 362.078 199.802C359.594 199.802 357.579 197.804 357.579 195.34C357.579 192.876 359.594 190.879 362.078 190.879C364.563 190.879 366.578 192.876 366.578 195.34Z" fill="white"/>
<path opacity="0.5" d="M337.24 321.207H326.11C324.589 321.207 323.354 319.985 323.354 318.474V290.952C323.354 289.444 324.586 288.219 326.11 288.219H337.24C338.76 288.219 339.996 289.441 339.996 290.952V318.474C339.993 319.981 338.76 321.207 337.24 321.207Z" fill="white"/>
<path d="M365.185 321.207H354.054C352.534 321.207 351.298 319.985 351.298 318.474V257.967C351.298 256.46 352.53 255.234 354.054 255.234H365.185C366.705 255.234 367.941 256.456 367.941 257.967V318.474C367.937 319.981 366.705 321.207 365.185 321.207Z" fill="url(#paint44_linear)"/>
<path opacity="0.5" d="M393.129 321.207H381.999C380.478 321.207 379.243 319.985 379.243 318.474V272.084C379.243 270.576 380.475 269.351 381.999 269.351H393.129C394.65 269.351 395.885 270.573 395.885 272.084V318.474C395.882 319.981 394.65 321.207 393.129 321.207Z" fill="white"/>
<path d="M421.074 321.207H409.943C408.423 321.207 407.187 319.985 407.187 318.474V243.459C407.187 241.952 408.42 240.726 409.943 240.726H421.074C422.594 240.726 423.83 241.948 423.83 243.459V318.474C423.827 319.981 422.594 321.207 421.074 321.207Z" fill="url(#paint45_linear)"/>
<g opacity="0.5">
<path opacity="0.5" d="M513.039 256.187H451.287C450.034 256.187 449.022 255.18 449.022 253.941V252.651C449.022 251.409 450.038 250.405 451.287 250.405H513.039C514.291 250.405 515.304 251.413 515.304 252.651V253.941C515.307 255.183 514.291 256.187 513.039 256.187Z" fill="url(#paint46_linear)"/>
<path opacity="0.5" d="M481.277 272.615H451.939C450.33 272.615 449.022 271.321 449.022 269.722C449.022 268.126 450.326 266.829 451.939 266.829H481.277C482.887 266.829 484.195 268.122 484.195 269.722C484.195 271.321 482.887 272.615 481.277 272.615Z" fill="url(#paint47_linear)"/>
<path opacity="0.5" d="M499.67 289.042H451.939C450.33 289.042 449.022 287.746 449.022 286.15C449.022 284.553 450.326 283.257 451.939 283.257H499.67C501.28 283.257 502.587 284.55 502.587 286.15C502.587 287.749 501.28 289.042 499.67 289.042Z" fill="url(#paint48_linear)"/>
<path opacity="0.5" d="M527.323 305.47H451.287C450.034 305.47 449.022 304.463 449.022 303.224V301.934C449.022 300.692 450.038 299.688 451.287 299.688H527.323C528.576 299.688 529.588 300.695 529.588 301.934V303.224C529.588 304.466 528.576 305.47 527.323 305.47Z" fill="url(#paint49_linear)"/>
</g>
<path d="M311.214 166.096H247.51C241.905 166.096 237.361 161.59 237.361 156.033V114.363C237.361 108.805 241.905 104.3 247.51 104.3H311.214C316.819 104.3 321.363 108.805 321.363 114.363V156.036C321.363 161.59 316.819 166.096 311.214 166.096Z" fill="url(#paint50_linear)"/>
<path d="M265.731 148.712V121.68L292.993 135.028L265.731 148.712Z" fill="white"/>
<path d="M453.529 22.4988H400.062C395.144 22.4988 391.156 26.4534 391.156 31.3302V84.3463C391.156 89.2232 395.144 93.1777 400.062 93.1777H453.529C458.447 93.1777 462.435 89.2232 462.435 84.3463V31.3302C462.439 26.4534 458.45 22.4988 453.529 22.4988Z" fill="url(#paint51_linear)"/>
<path d="M414.124 75.9707H409.498C407.819 75.9707 406.457 74.6196 406.457 72.9554V56.8954C406.457 55.2312 407.819 53.8801 409.498 53.8801H414.124C415.802 53.8801 417.165 55.2312 417.165 56.8954V72.9554C417.165 74.6196 415.802 75.9707 414.124 75.9707Z" fill="white"/>
<path d="M435.311 55.3606L444.403 55.2721C445.439 55.2721 446.4 55.8473 446.836 56.7798C447.035 57.2052 447.141 57.6748 447.135 58.1581C447.117 59.339 446.438 60.4213 445.37 60.959C446.431 61.4593 447.117 62.5143 447.135 63.6714C447.152 64.8591 445.844 65.9584 444.753 66.4723C445.868 66.9828 446.537 68.1161 446.428 69.2732C446.335 70.2601 445.017 71.4172 443.781 71.5465C444.739 72.0366 445.271 73.0712 445.106 74.0854C444.921 75.2051 443.922 76.0661 442.724 76.0967H425.485C425.203 76.0967 424.925 76.0627 424.654 75.9912L420.01 74.7831C419.616 74.681 419.341 74.327 419.341 73.922V56.1638C419.341 55.6737 419.743 55.2755 420.237 55.2755H424.908C425.608 55.2755 426.257 54.9182 426.624 54.326C427.582 52.7877 428.975 50.3816 430.832 48.418C433.389 45.7056 434.164 40.1412 436.196 39.6137C438.225 39.0896 440.432 46.1752 438.05 50.1128C435.668 54.0504 435.311 55.3606 435.311 55.3606Z" fill="white"/>
<path d="M413.65 71.3388C413.65 72.3462 412.827 73.163 411.811 73.163C410.795 73.163 409.971 72.3462 409.971 71.3388C409.971 70.3314 410.795 69.5146 411.811 69.5146C412.827 69.5146 413.65 70.3314 413.65 71.3388Z" fill="white"/>
<path d="M706.736 510.52C706.242 512.436 703.293 513.498 699.621 513.328C694.689 513.1 689.706 511.8 684.976 508.958C683.754 508.223 684.176 503.7 684.176 503.7L682.745 507.389C681.461 506.436 680.682 505.701 679.485 504.479C678.596 501.607 679.354 496.958 679.773 494.865C679.91 494.191 680.01 493.783 680.01 493.783L689.325 492.711C689.325 492.711 690.824 498.2 699.326 502.727C705.308 505.909 707.22 508.631 706.736 510.52Z" fill="url(#paint52_linear)"/>
<path d="M706.736 510.52C706.242 512.436 703.293 513.498 699.621 513.328C694.689 513.1 689.706 511.799 684.976 508.958C683.754 508.223 684.176 503.7 684.176 503.7L682.745 507.389C681.461 506.436 680.682 505.701 679.485 504.479C678.596 501.607 679.354 496.958 679.773 494.865L685.01 496.018C685.01 496.018 685.305 501.171 692.939 507.297C700.575 513.423 706.733 510.516 706.736 510.52Z" fill="#4C1A13"/>
<path d="M645.884 508.025L637.794 508.757L637.06 502.338L633.528 508.757C633.528 508.757 619.995 510.653 616.906 509.778C615.042 509.25 615.214 507.532 617.129 505.507C618.385 504.173 620.4 502.706 623.084 501.358C629.852 497.962 636.617 492.711 636.617 492.711H644.528C644.528 492.711 647.5 503.506 645.884 508.025Z" fill="url(#paint53_linear)"/>
<path d="M645.884 508.025L637.794 508.757L637.06 502.338L633.528 508.757C633.528 508.757 619.995 510.653 616.906 509.778C615.042 509.25 615.214 507.532 617.129 505.507C617.726 506.463 619.532 507.481 624.704 507.004C633.744 506.174 638.528 494.865 638.528 494.865L639.373 492.711H644.528C644.528 492.711 647.5 503.506 645.884 508.025Z" fill="#4C1A13"/>
<path d="M658.414 383.323C658.38 389.527 656.547 406.353 654.365 424.795C651.245 451.133 647.408 480.772 647.061 487.463C646.471 498.836 637.942 497.087 635 495.045C632.056 493.003 628.476 443.438 628.232 392.947C628.136 372.851 628.898 358.789 629.941 348.984C631.949 330.133 635 327.023 635 327.023C644.411 322.353 655.559 328.479 655.559 328.479C655.559 328.479 658.497 368.263 658.414 383.323Z" fill="url(#paint54_linear)"/>
<path d="M658.414 383.323C658.38 389.527 656.547 406.353 654.365 424.795C655.233 379.246 638.566 352.033 630.686 344.233C632.694 325.382 635 327.023 635 327.023C644.411 322.353 655.559 328.479 655.559 328.479C655.559 328.479 658.497 368.263 658.414 383.323Z" fill="#224199"/>
<path d="M689.62 495.92C689.62 495.92 679.814 501.171 678.441 493.589C677.068 486.003 659.938 401.408 655.559 383.612C652.285 370.312 647.02 350.975 645.184 339.502C644.566 335.63 644.336 332.652 644.707 331.107C646.179 324.981 667.064 321.724 672.359 327.509C672.359 327.509 679.189 336.862 681.153 368.498C681.345 371.602 681.489 374.917 681.578 378.46C682.56 418.131 687.461 452.749 688.442 468.306C689.424 483.862 691.775 492.421 689.62 495.92Z" fill="url(#paint55_linear)"/>
<path d="M680.212 357.656C673.55 334.268 650.407 340.282 645.184 339.506C644.566 335.633 644.336 332.655 644.707 331.11C646.179 324.984 667.064 321.727 672.359 327.513C672.359 327.509 674.625 329.102 680.212 357.656Z" fill="#224199"/>
<path d="M636.071 242.186C636.057 242.217 636.044 242.251 636.03 242.281C634.41 246.144 628.822 247.968 628.822 247.968C628.822 247.968 623.818 247.24 625.143 243.639C625.524 242.601 626.073 241.237 626.78 239.8C628.513 236.268 631.197 232.317 634.705 231.85C639.592 231.204 637.677 238.3 636.071 242.186Z" fill="url(#paint56_linear)"/>
<path d="M636.071 242.186C636.057 242.217 636.044 242.251 636.03 242.281C634.41 246.144 628.822 247.968 628.822 247.968C628.822 247.968 623.818 247.24 625.143 243.639C625.524 242.601 626.073 241.236 626.78 239.8C628.057 241.897 631.094 245.348 636.071 242.186Z" fill="#C1581E"/>
<path d="M633.624 293.184C633.624 293.184 607.67 298.493 598.963 296.829C598.208 296.686 597.49 296.526 596.814 296.352C589.716 294.515 587.029 290.757 591.46 280.64C596.313 269.555 619.26 244.613 623.231 243.738C627.202 242.863 630.686 248.115 630.686 248.115C630.686 248.115 622.497 262.555 618.083 268.241C613.669 273.932 612.492 278.89 622.202 271.485C626.375 268.299 630.072 266.063 632.927 264.552C636.716 262.548 639.03 261.813 639.03 261.813C640.269 269.385 633.624 293.184 633.624 293.184Z" fill="url(#paint57_linear)"/>
<path d="M633.624 293.184C633.624 293.184 607.67 298.493 598.963 296.829C598.208 296.686 597.49 296.526 596.814 296.352C618.087 300.675 630.037 272.428 632.927 264.552C636.716 262.548 639.03 261.813 639.03 261.813C640.269 269.385 633.624 293.184 633.624 293.184Z" fill="#3B03D6"/>
<path d="M683.078 292.323C681.348 297.115 679.498 301.662 678.098 304.997C673.684 315.499 676.773 324.249 675.301 328.044C673.832 331.835 662.454 335.044 649.168 334.023C647.785 333.918 646.481 333.816 645.252 333.707C645.019 333.686 644.778 333.666 644.538 333.639C634.458 332.686 629.852 330.984 630.882 320.897C632.055 309.374 628.915 290.557 632.351 277.43C635.786 264.304 637.66 262.398 639.03 261.813C640.399 261.231 646.913 257.011 666.624 257.45C666.624 257.45 682.803 262.99 687.069 267.513C689.98 270.6 686.795 282.032 683.078 292.323Z" fill="url(#paint58_linear)"/>
<path d="M678.098 304.997C673.684 315.499 676.773 324.249 675.301 328.043C673.832 331.835 662.454 335.044 649.168 334.023C647.785 333.918 646.481 333.815 645.252 333.707C663.274 335.156 666.233 314.859 663.927 295.815C661.589 276.521 676.478 269.409 676.478 269.409C676.478 269.409 680.525 283.154 683.078 292.323C681.348 297.115 679.498 301.661 678.098 304.997Z" fill="#3B03D6"/>
<path d="M655.398 270.869C655.398 270.869 658.092 280.786 641.47 295.08C624.848 309.373 607.492 317.541 612.64 334.751C612.64 334.751 594.841 336.065 588.076 349.192C588.076 349.192 582.485 312.29 602.638 301.352C622.789 290.414 641.47 289.828 646.471 282.392C651.471 274.953 651.471 270.287 651.471 270.287L655.398 270.869Z" fill="url(#paint59_linear)"/>
<path d="M652.944 265.373C650.641 264.689 649.12 261.503 648.568 260.149C648.413 259.774 648.334 259.539 648.334 259.539C648.334 259.539 650.884 253.999 651.08 250.691C651.276 247.386 658.631 243.884 662.653 247.676C662.653 247.676 662.307 249.571 662.118 251.76C661.919 254.084 661.895 256.739 662.653 257.79C664.122 259.832 655.885 266.251 652.944 265.373Z" fill="url(#paint60_linear)"/>
<path d="M662.653 247.676C662.653 247.676 662.307 249.571 662.118 251.76C654.601 251.988 649.707 260.149 649.707 260.149H648.568C648.413 259.774 648.334 259.539 648.334 259.539C648.334 259.539 650.884 253.999 651.08 250.691C651.276 247.386 658.631 243.884 662.653 247.676Z" fill="#C1581E"/>
<path d="M659.197 266.931C659.197 266.931 657.117 271.379 655.583 272.036C654.049 272.693 651.035 272.683 650.521 271.485C650.006 270.287 648.828 265.982 648.828 265.982C648.828 265.982 651.138 262.555 654.028 262.555C656.915 262.555 659.197 266.931 659.197 266.931Z" fill="url(#paint61_linear)"/>
<path d="M644.854 230.758C644.854 230.758 638.529 246.947 641.47 251.759C644.411 256.572 657.553 249.438 657.553 249.438C657.553 249.438 657.749 250.109 661.328 249.282C664.908 248.455 666.576 247.58 666.576 247.58L670.108 243.496L664.812 230.271L644.854 230.758Z" fill="url(#paint62_linear)"/>
<path d="M673.537 245.634C672.243 248.063 669.288 248.986 666.611 249.299C663.82 249.626 661.328 249.282 661.328 249.282C661.328 249.282 666.58 247.897 665.89 243.449C665.299 239.654 660.004 242.863 660.004 242.863C660.004 242.863 662.945 233.674 662.358 233.382C661.771 233.093 643.09 236.302 636.03 227.549C631.743 222.24 633.418 211.934 639.181 204.651C639.184 204.645 639.184 204.641 639.184 204.641C642.915 199.928 648.358 196.484 655.003 196.484C671.92 196.484 657.659 212.38 662.437 217.778C667.211 223.172 673.241 220.841 674.271 227.988C675.301 235.134 670.89 236.302 670.89 236.302C670.89 236.302 676.186 240.675 673.537 245.634Z" fill="url(#paint63_linear)"/>
<path d="M654.025 262.555L660.886 270.283L666.621 257.45C666.621 257.45 664.606 253.808 662.008 254.972C659.417 256.136 658.342 260.513 654.025 262.555Z" fill="#E3D2FF"/>
<path d="M654.025 262.555L647.452 271.485C647.452 271.485 644.511 262.068 644.315 259.931C644.119 257.79 649.391 257.004 649.391 257.004C649.391 257.004 650.033 261.415 654.025 262.555Z" fill="#E3D2FF"/>
<path d="M677.655 374.57C677.655 374.57 666.868 386.822 666.085 396.545C665.313 406.115 658.627 411.733 658.418 411.907C658.415 411.907 658.415 411.91 658.415 411.91C658.415 411.91 638.233 401.99 622.936 400.241C607.639 398.491 593.519 393.24 593.519 393.24C593.519 393.24 604.698 381.182 615.485 367.957C626.272 354.736 628.225 350.846 628.225 350.846C628.225 350.846 628.229 350.846 628.232 350.849C628.864 351.115 669.288 368.202 677.655 374.57Z" fill="white"/>
<path opacity="0.5" d="M677.655 374.57C677.655 374.57 666.868 386.821 666.085 396.545C665.313 406.114 658.627 411.733 658.418 411.907C665.059 398.879 628.743 351.21 628.232 350.849C628.864 351.114 669.287 368.202 677.655 374.57Z" fill="#B7C5FF"/>
<path d="M670.228 367.276C670.228 367.276 669.566 371.143 668.169 375.666C667.898 376.547 667.513 377.299 667.05 377.915C665.148 380.444 661.895 380.624 659.369 377.925C656.232 374.57 662.653 369.318 661.624 369.318C660.594 369.318 657.91 371.034 658.497 368.263C658.73 367.161 659.969 366.32 661.376 365.704C663.508 364.772 666.034 364.36 666.034 364.36L670.228 367.276Z" fill="url(#paint64_linear)"/>
<path d="M670.228 367.276C670.228 367.276 669.566 371.143 668.169 375.666C667.898 376.547 667.513 377.299 667.05 377.915C667.046 377.915 667.046 377.919 667.043 377.919C669.521 368.726 661.376 365.704 661.376 365.704C663.508 364.772 666.034 364.36 666.034 364.36L670.228 367.276Z" fill="#C1581E"/>
<path d="M676.478 269.409C685.302 264.243 690.993 263.331 698.053 286.864C705.113 310.394 706.094 316.224 695.307 334.217C684.52 352.207 670.595 369.322 670.595 369.322C670.595 369.322 663.831 366.987 665.447 363.489C667.064 359.987 672.507 341.466 677.655 333.298C682.803 325.13 684.276 318.858 679.862 311.419C675.448 303.976 658.552 279.904 676.478 269.409Z" fill="url(#paint65_linear)"/>
<path d="M670.104 243.496C669.861 245.79 667.994 247.975 666.611 249.299C663.82 249.626 661.328 249.282 661.328 249.282C661.328 249.282 666.58 247.897 665.89 243.449C665.299 239.654 660.004 242.863 660.004 242.863C660.004 242.863 662.945 233.675 662.358 233.382C661.771 233.093 643.09 236.302 636.03 227.549C631.743 222.24 633.418 211.935 639.181 204.652C639.05 205.148 634.015 224.462 649.168 226.381C664.517 228.328 667.654 229.104 665.986 234.26C664.318 239.413 664.318 239.413 664.318 239.413C664.318 239.413 670.496 239.801 670.104 243.496Z" fill="#7F2412"/>
<path d="M323.038 214.997C319.63 217.322 296.096 239.457 286.939 244.405C286.256 244.776 285.497 245.133 284.684 245.484H284.68C274.614 249.809 255.761 252.515 255.761 252.515L255.04 239.355C255.04 239.355 259.262 238.688 264.259 237.796C270.155 236.744 277.126 235.383 279.518 234.437C283.939 232.688 314.88 213.098 317.564 208.279C320.244 203.46 322.578 199.441 325.949 200.037C329.322 200.636 326.446 212.67 323.038 214.997Z" fill="url(#paint66_linear)"/>
<path d="M284.68 245.484C274.614 249.809 255.761 252.515 255.761 252.515L255.04 239.355C255.04 239.355 259.262 238.688 264.259 237.796C265.848 241.642 270.921 249.697 284.68 245.484Z" fill="#E56A6A"/>
<path d="M246.161 302.472C244.558 307.886 241.154 312.998 236.599 317.323C227.398 326.056 213.501 331.576 200.266 329.895C187.821 328.313 174.896 320.237 169.233 307.434C167.942 304.514 167.077 301.461 166.597 298.381C165.276 289.948 166.823 281.303 170.314 274.592C175.603 264.427 182.605 263.984 186.737 251.715C189.469 243.602 189.531 235.233 189.531 235.233C189.603 225.548 186.843 223.57 189.088 219.483C192.112 213.98 198.972 214.181 201.499 206.959C202.034 205.428 202.274 205.618 202.23 203.488C202.034 194.347 213.212 185.399 217.135 187.996C221.058 190.593 225.568 192.791 233.215 188.901C240.865 185.011 241.651 194.54 239.297 200.765C236.942 206.986 233.991 211.036 238.12 215.545C247.194 225.449 242.557 233.232 239.619 237.149C238.96 238.021 238.387 238.701 238.072 239.171C229.151 252.355 244.634 270.954 247.005 289.733C247.544 293.991 247.407 298.258 246.161 302.472Z" fill="url(#paint67_linear)"/>
<path d="M236.599 317.324C227.398 326.056 213.501 331.576 200.266 329.895C187.821 328.313 174.896 320.237 169.233 307.434C167.942 304.514 167.077 301.461 166.597 298.381C166.597 298.381 170.654 307.784 184.382 305.712C198.111 303.639 193.371 287.518 192.211 275.644C191.051 263.773 192.228 253.822 199.679 243.919C207.131 234.018 208.112 227.6 208.112 227.6L229.882 231.67C229.882 231.67 230.576 238.729 239.62 237.149C238.961 238.021 238.387 238.701 238.072 239.171C229.151 252.355 244.634 270.954 247.006 289.733C243.93 292.766 235.017 302.918 236.599 317.324Z" fill="#7C2312"/>
<path d="M240.865 505.646C237.924 504.578 233.414 495.777 233.414 495.777L232.992 505.452L228.695 505.092C228.695 505.092 227.137 494.385 230.469 484.403C230.689 483.739 230.97 483.195 231.3 482.749C234.677 478.144 243.024 484.403 243.024 484.403C243.024 484.403 245.334 490.536 249.837 495.583C253.019 499.149 257.793 501.865 259.859 503.849C260.219 504.193 260.501 504.52 260.672 504.823C263.222 509.295 243.807 506.718 240.865 505.646Z" fill="url(#paint68_linear)"/>
<path d="M240.865 505.646C237.924 504.578 233.414 495.777 233.414 495.777L232.992 505.452L228.695 505.092C228.695 505.092 227.137 494.385 230.469 484.403C230.689 483.74 230.97 483.195 231.3 482.749L236.259 485.084C236.259 485.084 238.072 500.736 247.925 502.829C254.676 504.258 258.266 504.095 259.859 503.85C260.219 504.193 260.501 504.52 260.672 504.823C263.222 509.295 243.807 506.718 240.865 505.646Z" fill="#4C1A13"/>
<path d="M197.129 497.458C194.507 495.757 192.108 486.176 192.108 486.176L189.5 495.511L185.398 494.198C185.398 494.198 186.311 483.416 191.827 474.435C192.28 473.697 192.781 473.155 193.309 472.771C197.648 469.633 204.055 477.239 204.055 477.239C204.055 477.239 204.913 483.729 208.157 489.654C210.326 493.616 214.05 497.148 215.769 499.544C216.188 500.126 216.487 500.64 216.617 501.076C218.086 506 199.751 499.156 197.129 497.458Z" fill="url(#paint69_linear)"/>
<path d="M197.129 497.458C194.507 495.756 192.108 486.176 192.108 486.176L189.5 495.511L185.398 494.198C185.398 494.198 186.311 483.416 191.827 474.435C192.28 473.696 192.781 473.155 193.309 472.771L198.502 476.623C198.502 476.623 194.974 488.984 202.916 495.055C208.981 499.691 213.82 499.769 215.769 499.544C216.188 500.126 216.487 500.64 216.617 501.076C218.086 506 199.751 499.156 197.129 497.458Z" fill="#4C1A13"/>
<path d="M229.687 393.843C228.537 398.348 227.435 402.694 226.378 406.877C222.136 423.716 218.635 437.888 215.673 449.074C215.67 449.091 215.666 449.105 215.659 449.122C215.584 449.414 215.505 449.704 215.43 449.99C210.508 468.493 207.086 478.557 204.189 478.665C199.092 478.859 188.696 479.833 193.402 463.303C196.968 450.783 201.516 416.018 203.513 386.389C203.722 383.272 203.904 380.209 204.055 377.235C204.361 371.153 204.532 365.442 204.532 360.378C204.532 329.31 209.808 304.224 209.808 304.224H231.451C231.451 304.224 243.367 340.231 229.687 393.843Z" fill="url(#paint70_linear)"/>
<path d="M215.673 449.074C219.507 433.096 207.766 398.188 203.513 386.389C203.723 383.272 203.904 380.209 204.055 377.234L226.378 406.877C222.136 423.716 218.635 437.887 215.673 449.074Z" fill="url(#paint71_linear)"/>
<path d="M243.337 263.674C243.337 263.674 227.223 244.762 227.868 239.78C227.868 239.78 229.855 239.579 232.783 239.297C239.53 238.643 251.282 237.568 255.28 237.568C259.046 237.568 260.085 242.278 261.187 246.301C261.764 248.407 262.358 250.327 263.37 251.28C266.311 254.05 243.337 263.674 243.337 263.674Z" fill="url(#paint72_linear)"/>
<path d="M243.337 263.674C243.337 263.674 227.223 244.762 227.868 239.78C227.868 239.78 229.855 239.579 232.783 239.297C234.667 241.008 240.481 245.919 247.304 247.924C253.022 249.602 258.692 248.761 261.496 247.386C262.073 249.493 262.358 250.327 263.37 251.28C266.311 254.05 243.337 263.674 243.337 263.674Z" fill="#D14B7F"/>
<path d="M245.279 456.786C244.689 475.749 246.456 484.791 242.925 485.373C239.393 485.958 227.627 490.042 228.214 480.414C228.805 470.79 229.814 415.946 206.805 382.986C183.792 350.022 186.737 308.89 204.385 301.307C221.388 299.252 221.357 306.848 221.357 306.848C221.357 306.848 233.51 341.269 239.393 373.358C240.093 377.176 240.718 381.002 241.277 384.807C242.345 392.083 243.161 399.291 243.776 406.267C245.543 426.285 245.663 444.401 245.279 456.786Z" fill="url(#paint73_linear)"/>
<path d="M211.696 305.711C211.696 305.711 200.627 325.304 216.703 363.189C232.779 401.071 234.598 418.867 236.263 443.663C237.928 468.459 236.263 486.636 236.263 486.636" stroke="#D7C2FF" stroke-width="2" stroke-miterlimit="10"/>
<path d="M207.989 324.205C207.989 324.205 219.905 326.944 219.428 310.261" stroke="#D7C2FF" stroke-width="2" stroke-miterlimit="10"/>
<path d="M222.627 229.546C222.627 229.546 223.609 241.019 225.764 242.771C227.923 244.521 212.622 244.521 212.821 241.022C213.017 237.52 212.818 228.188 212.818 228.188C212.818 228.188 218.302 227.014 222.627 229.546Z" fill="url(#paint74_linear)"/>
<path d="M229.491 202.514C229.491 202.514 237.141 225.075 234.197 229.934C231.255 234.798 214.781 229.934 214.781 229.934C214.781 229.934 209.485 232.269 208.112 227.6C206.739 222.931 209.681 218.071 214.585 221.573C219.49 225.075 231.06 212.629 229.491 202.514Z" fill="url(#paint75_linear)"/>
<path d="M241.161 279.428C236.16 287.303 236.452 303.931 234.869 308.597C234.317 310.231 230.675 311.184 225.973 311.572C217.225 312.297 204.8 311.065 201.739 308.597C197.033 304.806 203.798 296.638 202.621 286.428C202.034 281.337 199.47 273.85 197.414 267.118C195.348 260.353 193.79 254.349 195.266 252.301C198.207 248.217 212.821 241.019 212.821 241.019C212.821 241.019 216.154 240.338 223.361 239.61C230.569 238.881 234.101 242.091 243.337 252.883C252.573 263.674 246.161 271.553 241.161 279.428Z" fill="url(#paint76_linear)"/>
<path d="M225.973 311.572C217.225 312.297 204.8 311.065 201.739 308.597C197.033 304.806 203.798 296.638 202.621 286.429C202.034 281.337 199.47 273.85 197.414 267.118L206.482 258.869C206.482 258.869 211.249 276.219 210.271 286.721C209.29 297.224 210.721 311.024 225.973 311.572Z" fill="#D14B7F"/>
<path d="M187.935 280.493C181.043 286.582 175.04 289.852 169.906 291.026C163.971 292.384 159.201 290.941 155.573 287.81C148.808 281.977 115.121 238.78 114.239 235.863C113.357 232.946 117.771 230.612 120.122 233.239C122.477 235.863 162.091 276.12 164.84 276.12C167.256 276.12 170.187 274.813 172.833 273.241C176.804 270.889 180.137 267.952 180.137 267.952C180.137 267.952 186.462 267.513 187.935 280.493Z" fill="url(#paint77_linear)"/>
<path d="M187.935 280.493C181.043 286.582 175.04 289.852 169.905 291.026C177.508 286.187 173.983 276.021 172.833 273.241C176.804 270.889 180.137 267.952 180.137 267.952C180.137 267.952 186.462 267.513 187.935 280.493Z" fill="#E56A6A"/>
<path d="M203.527 269.354C203.527 269.354 202.26 270.668 200.434 272.499C200.434 272.499 200.428 272.506 200.414 272.516C196.556 276.379 190.203 282.522 187.911 283.512C186.03 284.325 182.055 280.17 179.43 275.647L179.426 275.644C177.333 272.036 176.101 268.194 177.47 266.448C180.559 262.51 196.889 250.623 196.889 250.623C200.973 251.086 204.481 253.689 206.005 257.406C207.666 261.455 206.691 266.176 203.527 269.354Z" fill="url(#paint78_linear)"/>
<path d="M200.414 272.516C196.556 276.379 190.203 282.521 187.911 283.512C186.03 284.325 182.055 280.17 179.43 275.647C186.472 283.631 199.803 273.009 200.414 272.516Z" fill="#D14B7F"/>
<path d="M106.366 238.477C107.656 240.488 110.347 241.08 112.375 239.801L133.119 226.708L128.445 219.425L107.701 232.518C105.672 233.797 105.075 236.465 106.366 238.477Z" fill="#5574D8"/>
<path d="M130.875 151.445L76.2039 185.951L83.075 191.678C88.9715 194.265 95.575 197.722 102.402 202.385C108.147 206.305 113.148 210.464 117.479 214.603C124.731 221.532 130.109 228.416 133.977 234.09C134.279 234.341 135.227 235.066 136.661 235.158C137.626 235.22 138.607 234.985 139.465 234.447L148.406 228.804C149.261 228.263 149.892 227.481 150.242 226.589C150.761 225.262 150.503 224.104 150.4 223.727C146.759 217.696 142.623 209.685 139.318 199.887C137.482 194.445 135.899 188.452 134.801 181.941C133.432 173.835 133.068 166.44 133.202 160.048L130.875 151.445Z" fill="#B7C5FF"/>
<path d="M109.754 178.37C124.851 168.841 134.309 156.785 130.88 151.444C127.45 146.102 112.432 149.496 97.3352 159.025C82.2384 168.554 72.78 180.61 76.2093 185.951C79.6386 191.293 94.657 187.899 109.754 178.37Z" fill="#92ACFF"/>
<path d="M98.4031 160.699C85.0348 169.135 76.3789 179.369 79.0663 183.558C80.0513 185.093 82.4264 185.604 85.7007 185.216C91.35 184.549 99.673 181.207 108.137 175.864C116.604 170.52 123.183 164.456 126.183 159.664C127.92 156.89 128.462 154.542 127.477 153.004C124.786 148.818 111.771 152.259 98.4031 160.699Z" fill="#748FFE"/>
<path d="M108.137 175.863C106.263 177.048 104.396 178.13 102.563 179.11C96.1173 182.554 90.0973 184.695 85.7007 185.215C85.5634 185.079 85.4433 184.936 85.3403 184.78C83.0854 181.268 90.3444 172.685 101.554 165.609C112.767 158.534 123.681 155.644 125.936 159.157C126.039 159.313 126.118 159.483 126.183 159.664C123.846 163.394 119.339 167.896 113.463 172.229C111.792 173.461 110.011 174.679 108.137 175.863Z" fill="#5574D8"/>
<path d="M135.11 231.323L137.859 235.604C139.019 237.411 141.436 237.942 143.258 236.792L148.945 233.205C150.768 232.055 151.303 229.659 150.143 227.852L147.394 223.57L135.11 231.323Z" fill="#B7C5FF"/>
<path d="M117.479 214.603C124.731 221.532 130.109 228.417 133.977 234.09C134.279 234.342 135.227 235.066 136.661 235.158C137.626 235.22 138.607 234.985 139.465 234.447L148.406 228.804C149.261 228.263 149.892 227.481 150.242 226.589C150.761 225.262 150.503 224.105 150.4 223.727C146.759 217.696 142.623 209.685 139.318 199.887C136.394 202.548 132.917 205.366 128.836 208.106C124.886 210.757 121.048 212.887 117.479 214.603Z" fill="#748FFE"/>
<path d="M108.137 175.863C106.263 177.048 104.396 178.13 102.563 179.11L99.8411 174.87C98.3001 172.47 99.014 169.288 101.434 167.76L103.572 166.413C105.992 164.885 109.201 165.592 110.742 167.992L113.463 172.232C111.792 173.461 110.011 174.679 108.137 175.863Z" fill="#B7C5FF"/>
<path d="M102.505 167.086C100.871 168.118 100.013 169.673 100.583 170.565C101.156 171.456 102.94 171.34 104.574 170.309C106.208 169.278 107.066 167.723 106.496 166.831C105.923 165.943 104.138 166.055 102.505 167.086Z" fill="white"/>
<path d="M118.32 226.878C118.32 226.878 111.648 226.61 110.745 231.684C110.313 234.131 115.121 236.901 117.294 234.658C119.775 232.099 116.439 228.76 117.637 229.308C120.362 230.554 120.455 227.903 118.32 226.878Z" fill="url(#paint79_linear)"/>
<path d="M243.776 406.268C237.807 406.155 233.002 401.319 233.002 395.371C233.002 390.279 236.52 386.005 241.277 384.807C242.344 392.083 243.161 399.291 243.776 406.268Z" fill="#B485FF"/>
<path d="M560.073 89.3491H653.702C658.315 89.3491 662.056 93.0587 662.056 97.6327V161.954C662.056 166.528 658.315 170.238 653.702 170.238H560.073C555.46 170.238 551.719 166.528 551.719 161.954V97.6327C551.719 93.0587 555.46 89.3491 560.073 89.3491Z" fill="url(#paint80_linear)"/>
<path d="M596.152 154.76C591.917 154.76 589.418 148.634 586.525 141.545C583.824 134.919 580.759 127.411 576.64 127.152C574.028 126.992 569.659 129.64 563.701 143.209C563.433 143.818 562.719 144.094 562.108 143.832C561.494 143.566 561.216 142.858 561.48 142.253C566.786 130.168 571.801 124.447 576.794 124.76C582.437 125.114 585.656 133.013 588.773 140.65C591.014 146.143 593.55 152.364 596.159 152.364C596.166 152.364 596.172 152.364 596.179 152.364C599.491 152.32 602.529 142.984 605.206 134.745C608.782 123.746 612.163 113.359 618.258 113.083C622.655 112.883 625.864 118.062 628.96 123.068C630.957 126.302 633.432 130.324 635.059 129.974C637.043 129.541 638.076 123.269 638.903 118.226C640.211 110.282 641.69 101.277 647.38 99.7255C648.684 99.3681 650.095 99.4328 651.571 99.9161C652.206 100.124 652.553 100.801 652.343 101.434C652.134 102.064 651.447 102.407 650.812 102.2C649.8 101.87 648.86 101.815 648.026 102.043C643.835 103.187 642.486 111.385 641.295 118.617C640.108 125.839 639.167 131.543 635.58 132.322C632.286 133.04 629.787 129.004 626.897 124.328C624.333 120.179 621.43 115.486 618.492 115.486C618.451 115.486 618.409 115.486 618.368 115.489C613.954 115.687 610.533 126.206 607.512 135.487C604.159 145.795 601.262 154.702 596.214 154.77C596.193 154.76 596.172 154.76 596.152 154.76Z" fill="white"/>
<path opacity="0.4" d="M618.313 123.76C623.592 123.76 627.872 119.516 627.872 114.282C627.872 109.047 623.592 104.803 618.313 104.803C613.034 104.803 608.755 109.047 608.755 114.282C608.755 119.516 613.034 123.76 618.313 123.76Z" fill="#F5F8FF"/>
<path d="M618.313 119.196C621.05 119.196 623.269 116.995 623.269 114.281C623.269 111.567 621.05 109.367 618.313 109.367C615.576 109.367 613.357 111.567 613.357 114.281C613.357 116.995 615.576 119.196 618.313 119.196Z" fill="#F5F8FF"/>
<path d="M404.329 483.597H310.37L319.506 386.947H395.192L404.329 483.597Z" fill="url(#paint81_linear)"/>
<path d="M332.899 406.162C335.617 406.162 337.82 403.992 337.82 401.316C337.82 398.639 335.617 396.47 332.899 396.47C330.18 396.47 327.977 398.639 327.977 401.316C327.977 403.992 330.18 406.162 332.899 406.162Z" fill="#C2D9FF"/>
<path d="M381.796 406.162C384.515 406.162 386.718 403.992 386.718 401.316C386.718 398.639 384.515 396.47 381.796 396.47C379.078 396.47 376.875 398.639 376.875 401.316C376.875 403.992 379.078 406.162 381.796 406.162Z" fill="#C2D9FF"/>
<path d="M383.53 401.316H380.063C380.063 381.856 369.873 366.021 357.349 366.021C344.825 366.021 334.635 381.853 334.635 401.316H331.169C331.169 391.099 333.811 381.468 338.613 374.202C343.562 366.712 350.217 362.583 357.353 362.583C364.488 362.583 371.143 366.708 376.092 374.202C380.887 381.468 383.53 391.099 383.53 401.316Z" fill="#C2D9FF"/>
<path opacity="0.54" d="M404.329 483.597H310.37C364.207 466.159 395.192 386.944 395.192 386.944L404.329 483.597Z" fill="#B3CFFF"/>
<path d="M440.586 491.084H375.039L381.409 423.658H434.213L440.586 491.084Z" fill="url(#paint82_linear)"/>
<path d="M390.755 437.064C392.65 437.064 394.187 435.551 394.187 433.684C394.187 431.818 392.65 430.305 390.755 430.305C388.859 430.305 387.322 431.818 387.322 433.684C387.322 435.551 388.859 437.064 390.755 437.064Z" fill="#C2D9FF"/>
<path d="M424.867 437.064C426.762 437.064 428.299 435.551 428.299 433.684C428.299 431.818 426.762 430.305 424.867 430.305C422.971 430.305 421.435 431.818 421.435 433.684C421.435 435.551 422.971 437.064 424.867 437.064Z" fill="#C2D9FF"/>
<path d="M426.075 433.684H423.655C423.655 420.109 416.547 409.062 407.809 409.062C399.071 409.062 391.963 420.109 391.963 433.684H389.543C389.543 426.558 391.386 419.84 394.736 414.769C398.189 409.542 402.832 406.663 407.809 406.663C412.786 406.663 417.429 409.542 420.882 414.769C424.232 419.837 426.075 426.555 426.075 433.684Z" fill="#C2D9FF"/>
<path opacity="0.54" d="M440.586 491.084H375.039C412.597 478.917 434.213 423.658 434.213 423.658L440.586 491.084Z" fill="#B3CFFF"/>
<path d="M544.426 462.881L597.36 462.367C597.899 462.36 598.331 461.925 598.328 461.391L597.933 421.337C597.926 420.803 597.487 420.374 596.948 420.378L544.014 420.892C543.475 420.898 543.043 421.334 543.046 421.868L543.441 461.921C543.444 462.456 543.884 462.885 544.426 462.881Z" fill="url(#paint83_linear)"/>
<path d="M560.248 429.641C562.181 429.621 563.759 431.2 563.78 433.167C563.783 433.347 563.766 433.521 563.742 433.691L578.669 441.689C579.283 441.117 580.093 440.763 580.992 440.753C582.925 440.733 584.503 442.312 584.524 444.279C584.545 446.246 582.993 447.856 581.064 447.873C579.98 447.883 579.008 447.389 578.36 446.607L568.973 450.16V450.163C568.993 452.13 567.442 453.74 565.513 453.76C563.581 453.781 562.002 452.202 561.982 450.234C561.961 448.267 563.512 446.658 565.441 446.641C566.526 446.63 567.497 447.124 568.146 447.907L577.533 444.354V444.35C577.529 444.17 577.546 443.996 577.57 443.826L562.644 435.828C562.03 436.4 561.22 436.754 560.32 436.764C558.388 436.785 556.809 435.206 556.789 433.239C556.768 431.271 558.319 429.662 560.248 429.641Z" fill="white"/>
<path d="M125.088 425.445H177.23C184.966 425.445 191.233 419.227 191.233 411.56V379.736C191.233 372.065 184.962 365.851 177.23 365.851H125.088C117.352 365.851 111.085 372.068 111.085 379.736V411.56C111.082 419.227 117.352 425.445 125.088 425.445Z" fill="url(#paint84_linear)"/>
<path opacity="0.33" d="M125.905 418.169H176.409C182.34 418.169 187.148 413.401 187.148 407.52V380.11C187.148 374.229 182.34 369.461 176.409 369.461H125.905C119.974 369.461 115.166 374.229 115.166 380.11V407.52C115.169 413.401 119.978 418.169 125.905 418.169Z" fill="white"/>
<path opacity="0.89" d="M148.773 421.834C148.773 423.117 149.841 424.155 151.159 424.155C152.477 424.155 153.544 423.114 153.544 421.834C153.544 420.555 152.477 419.513 151.159 419.513C149.841 419.513 148.773 420.551 148.773 421.834Z" fill="url(#paint85_linear)"/>
<path d="M123.831 409.178H180.809C181.258 409.178 181.622 408.817 181.622 408.371C181.622 407.925 181.258 407.564 180.809 407.564H123.831C123.382 407.564 123.018 407.925 123.018 408.371C123.021 408.817 123.385 409.178 123.831 409.178Z" fill="url(#paint86_linear)"/>
<path d="M155.809 409.178H180.812C181.262 409.178 181.626 408.817 181.626 408.371C181.626 407.925 181.262 407.564 180.812 407.564H155.809C155.359 407.564 154.996 407.925 154.996 408.371C154.996 408.817 155.359 409.178 155.809 409.178Z" fill="url(#paint87_linear)"/>
<path d="M154.168 408.371C154.168 409.15 154.817 409.783 155.62 409.783C156.423 409.783 157.072 409.15 157.072 408.371C157.072 407.592 156.423 406.959 155.62 406.959C154.817 406.959 154.168 407.592 154.168 408.371Z" fill="url(#paint88_linear)"/>
<path d="M135.947 376.203L162.399 376.343C164.338 376.353 165.996 377.517 166.689 379.161L152.072 389.432C150.568 390.487 148.042 390.473 146.549 389.401L131.733 378.749C132.498 377.238 134.098 376.193 135.947 376.203Z" fill="white"/>
<path d="M145.712 390.507C146.714 391.229 148.005 391.593 149.295 391.6C150.586 391.607 151.88 391.256 152.892 390.545L167.022 380.614C167.029 380.713 167.036 380.811 167.036 380.91L166.94 397.998C166.926 400.506 164.826 402.531 162.248 402.517L135.796 402.378C133.219 402.364 131.142 400.319 131.156 397.811L131.252 380.723C131.252 380.525 131.273 380.335 131.297 380.148L145.712 390.507Z" fill="white"/>
<defs>
<linearGradient id="paint0_linear" x1="789.038" y1="193.804" x2="789.037" y2="253.399" gradientUnits="userSpaceOnUse">
<stop offset="0.0102" stop-color="#FFD568"/>
<stop offset="0.4949" stop-color="#FFAA41"/>
<stop offset="1" stop-color="#FF6438"/>
</linearGradient>
<linearGradient id="paint1_linear" x1="789.042" y1="193.804" x2="789.041" y2="253.399" gradientUnits="userSpaceOnUse">
<stop offset="0.0102" stop-color="#FFD568"/>
<stop offset="0.4949" stop-color="#FFAA41"/>
<stop offset="1" stop-color="#FF6438"/>
</linearGradient>
<linearGradient id="paint2_linear" x1="794.165" y1="178.778" x2="794.163" y2="252.382" gradientUnits="userSpaceOnUse">
<stop offset="0.0102" stop-color="#FFD568"/>
<stop offset="0.4949" stop-color="#FFAA41"/>
<stop offset="1" stop-color="#FF6438"/>
</linearGradient>
<linearGradient id="paint3_linear" x1="801.852" y1="180.462" x2="801.851" y2="232.936" gradientUnits="userSpaceOnUse">
<stop offset="0.0102" stop-color="#FFD568"/>
<stop offset="0.4949" stop-color="#FFAA41"/>
<stop offset="1" stop-color="#FF6438"/>
</linearGradient>
<linearGradient id="paint4_linear" x1="377.993" y1="209.263" x2="149.419" y2="209.263" gradientUnits="userSpaceOnUse">
<stop stop-color="#8E6DFD"/>
<stop offset="1" stop-color="#FD90DA"/>
</linearGradient>
<linearGradient id="paint5_linear" x1="760.17" y1="142.317" x2="469.468" y2="142.317" gradientUnits="userSpaceOnUse">
<stop stop-color="#8E6DFD"/>
<stop offset="1" stop-color="#FD90DA"/>
</linearGradient>
<linearGradient id="paint6_linear" x1="140.239" y1="491.686" x2="860.025" y2="491.686" gradientUnits="userSpaceOnUse">
<stop stop-color="#1C8EF4"/>
<stop offset="1" stop-color="#00CFDD"/>
</linearGradient>
<linearGradient id="paint7_linear" x1="679.914" y1="354.865" x2="704.517" y2="354.865" gradientUnits="userSpaceOnUse">
<stop stop-color="#6D6AFE"/>
<stop offset="1" stop-color="#3FB0F7"/>
</linearGradient>
<linearGradient id="paint8_linear" x1="711.168" y1="354.865" x2="735.771" y2="354.865" gradientUnits="userSpaceOnUse">
<stop stop-color="#6D6AFE"/>
<stop offset="1" stop-color="#3FB0F7"/>
</linearGradient>
<linearGradient id="paint9_linear" x1="742.422" y1="354.865" x2="767.025" y2="354.865" gradientUnits="userSpaceOnUse">
<stop stop-color="#6D6AFE"/>
<stop offset="1" stop-color="#3FB0F7"/>
</linearGradient>
<linearGradient id="paint10_linear" x1="773.676" y1="354.865" x2="798.279" y2="354.865" gradientUnits="userSpaceOnUse">
<stop stop-color="#6D6AFE"/>
<stop offset="1" stop-color="#3FB0F7"/>
</linearGradient>
<linearGradient id="paint11_linear" x1="679.914" y1="381.899" x2="704.517" y2="381.899" gradientUnits="userSpaceOnUse">
<stop stop-color="#6D6AFE"/>
<stop offset="1" stop-color="#3FB0F7"/>
</linearGradient>
<linearGradient id="paint12_linear" x1="711.168" y1="381.899" x2="735.771" y2="381.899" gradientUnits="userSpaceOnUse">
<stop stop-color="#6D6AFE"/>
<stop offset="1" stop-color="#3FB0F7"/>
</linearGradient>
<linearGradient id="paint13_linear" x1="742.422" y1="381.899" x2="767.025" y2="381.899" gradientUnits="userSpaceOnUse">
<stop stop-color="#6D6AFE"/>
<stop offset="1" stop-color="#3FB0F7"/>
</linearGradient>
<linearGradient id="paint14_linear" x1="773.676" y1="381.899" x2="798.279" y2="381.899" gradientUnits="userSpaceOnUse">
<stop stop-color="#6D6AFE"/>
<stop offset="1" stop-color="#3FB0F7"/>
</linearGradient>
<linearGradient id="paint15_linear" x1="679.914" y1="408.932" x2="704.517" y2="408.932" gradientUnits="userSpaceOnUse">
<stop stop-color="#6D6AFE"/>
<stop offset="1" stop-color="#3FB0F7"/>
</linearGradient>
<linearGradient id="paint16_linear" x1="711.168" y1="408.932" x2="735.771" y2="408.932" gradientUnits="userSpaceOnUse">
<stop stop-color="#6D6AFE"/>
<stop offset="1" stop-color="#3FB0F7"/>
</linearGradient>
<linearGradient id="paint17_linear" x1="742.422" y1="408.932" x2="767.025" y2="408.932" gradientUnits="userSpaceOnUse">
<stop stop-color="#6D6AFE"/>
<stop offset="1" stop-color="#3FB0F7"/>
</linearGradient>
<linearGradient id="paint18_linear" x1="773.676" y1="408.932" x2="798.279" y2="408.932" gradientUnits="userSpaceOnUse">
<stop stop-color="#6D6AFE"/>
<stop offset="1" stop-color="#3FB0F7"/>
</linearGradient>
<linearGradient id="paint19_linear" x1="679.914" y1="435.965" x2="704.517" y2="435.965" gradientUnits="userSpaceOnUse">
<stop stop-color="#6D6AFE"/>
<stop offset="1" stop-color="#3FB0F7"/>
</linearGradient>
<linearGradient id="paint20_linear" x1="711.168" y1="435.966" x2="735.771" y2="435.966" gradientUnits="userSpaceOnUse">
<stop stop-color="#6D6AFE"/>
<stop offset="1" stop-color="#3FB0F7"/>
</linearGradient>
<linearGradient id="paint21_linear" x1="742.422" y1="435.966" x2="767.025" y2="435.966" gradientUnits="userSpaceOnUse">
<stop stop-color="#6D6AFE"/>
<stop offset="1" stop-color="#3FB0F7"/>
</linearGradient>
<linearGradient id="paint22_linear" x1="773.676" y1="449.482" x2="798.279" y2="449.482" gradientUnits="userSpaceOnUse">
<stop stop-color="#6D6AFE"/>
<stop offset="1" stop-color="#3FB0F7"/>
</linearGradient>
<linearGradient id="paint23_linear" x1="679.914" y1="462.999" x2="704.517" y2="462.999" gradientUnits="userSpaceOnUse">
<stop stop-color="#6D6AFE"/>
<stop offset="1" stop-color="#3FB0F7"/>
</linearGradient>
<linearGradient id="paint24_linear" x1="711.168" y1="462.999" x2="735.771" y2="462.999" gradientUnits="userSpaceOnUse">
<stop stop-color="#6D6AFE"/>
<stop offset="1" stop-color="#3FB0F7"/>
</linearGradient>
<linearGradient id="paint25_linear" x1="742.422" y1="462.999" x2="767.025" y2="462.999" gradientUnits="userSpaceOnUse">
<stop stop-color="#6D6AFE"/>
<stop offset="1" stop-color="#3FB0F7"/>
</linearGradient>
<linearGradient id="paint26_linear" x1="477.526" y1="494.496" x2="477.526" y2="128.878" gradientUnits="userSpaceOnUse">
<stop stop-color="#6D6AFE"/>
<stop offset="1" stop-color="#83C9FF"/>
</linearGradient>
<linearGradient id="paint27_linear" x1="429.845" y1="463.761" x2="528.064" y2="463.761" gradientUnits="userSpaceOnUse">
<stop stop-color="#6D6AFE"/>
<stop offset="1" stop-color="#83C9FF"/>
</linearGradient>
<linearGradient id="paint28_linear" x1="642.472" y1="375.587" x2="473.81" y2="378.47" gradientUnits="userSpaceOnUse">
<stop stop-color="#6D6AFE"/>
<stop offset="1" stop-color="#3FB0F7"/>
</linearGradient>
<linearGradient id="paint29_linear" x1="642.391" y1="374.405" x2="473.873" y2="377.285" gradientUnits="userSpaceOnUse">
<stop stop-color="#6D6AFE"/>
<stop offset="1" stop-color="#3FB0F7"/>
</linearGradient>
<linearGradient id="paint30_linear" x1="617.534" y1="162.76" x2="613.774" y2="266.408" gradientUnits="userSpaceOnUse">
<stop stop-color="#6D6AFE"/>
<stop offset="1" stop-color="#3FB0F7"/>
</linearGradient>
<linearGradient id="paint31_linear" x1="615.3" y1="260.73" x2="615.3" y2="190.8" gradientUnits="userSpaceOnUse">
<stop stop-color="#D1E8FF"/>
<stop offset="1" stop-color="#EAEFFF"/>
</linearGradient>
<linearGradient id="paint32_linear" x1="617.455" y1="253.854" x2="612.486" y2="257.494" gradientUnits="userSpaceOnUse">
<stop stop-color="#D1E8FF"/>
<stop offset="1" stop-color="#EAEFFF"/>
</linearGradient>
<linearGradient id="paint33_linear" x1="638.312" y1="223.335" x2="588.476" y2="259.845" gradientUnits="userSpaceOnUse">
<stop stop-color="#6D6AFE"/>
<stop offset="1" stop-color="#3FB0F7"/>
</linearGradient>
<linearGradient id="paint34_linear" x1="651.635" y1="238.639" x2="615.074" y2="239.264" gradientUnits="userSpaceOnUse">
<stop stop-color="#6D6AFE"/>
<stop offset="1" stop-color="#3FB0F7"/>
</linearGradient>
<linearGradient id="paint35_linear" x1="651.627" y1="238.382" x2="615.074" y2="239.007" gradientUnits="userSpaceOnUse">
<stop stop-color="#6D6AFE"/>
<stop offset="1" stop-color="#3FB0F7"/>
</linearGradient>
<linearGradient id="paint36_linear" x1="617.795" y1="208.574" x2="617.794" y2="244.166" gradientUnits="userSpaceOnUse">
<stop stop-color="#6D6AFE"/>
<stop offset="1" stop-color="#3FB0F7"/>
</linearGradient>
<linearGradient id="paint37_linear" x1="617.797" y1="208.574" x2="617.797" y2="244.166" gradientUnits="userSpaceOnUse">
<stop stop-color="#6D6AFE"/>
<stop offset="1" stop-color="#3FB0F7"/>
</linearGradient>
<linearGradient id="paint38_linear" x1="620.857" y1="199.601" x2="620.856" y2="243.559" gradientUnits="userSpaceOnUse">
<stop stop-color="#6D6AFE"/>
<stop offset="1" stop-color="#3FB0F7"/>
</linearGradient>
<linearGradient id="paint39_linear" x1="625.448" y1="200.606" x2="625.447" y2="231.945" gradientUnits="userSpaceOnUse">
<stop stop-color="#6D6AFE"/>
<stop offset="1" stop-color="#3FB0F7"/>
</linearGradient>
<linearGradient id="paint40_linear" x1="566.289" y1="313.46" x2="647.181" y2="313.46" gradientUnits="userSpaceOnUse">
<stop stop-color="#FA5DB1"/>
<stop offset="1" stop-color="#FEBFBF"/>
</linearGradient>
<linearGradient id="paint41_linear" x1="302.119" y1="272.525" x2="556.842" y2="272.525" gradientUnits="userSpaceOnUse">
<stop stop-color="#6D6AFE"/>
<stop offset="1" stop-color="#83C9FF"/>
</linearGradient>
<linearGradient id="paint42_linear" x1="312.886" y1="272.525" x2="546.076" y2="272.525" gradientUnits="userSpaceOnUse">
<stop stop-color="#D1E8FF"/>
<stop offset="1" stop-color="#EAEFFF"/>
</linearGradient>
<linearGradient id="paint43_linear" x1="302.119" y1="195.34" x2="556.842" y2="195.34" gradientUnits="userSpaceOnUse">
<stop stop-color="#6D6AFE"/>
<stop offset="1" stop-color="#83C9FF"/>
</linearGradient>
<linearGradient id="paint44_linear" x1="351.3" y1="288.221" x2="367.939" y2="288.221" gradientUnits="userSpaceOnUse">
<stop stop-color="#1C8EF4"/>
<stop offset="1" stop-color="#00CFDD"/>
</linearGradient>
<linearGradient id="paint45_linear" x1="407.189" y1="280.967" x2="423.828" y2="280.967" gradientUnits="userSpaceOnUse">
<stop stop-color="#1C8EF4"/>
<stop offset="1" stop-color="#00CFDD"/>
</linearGradient>
<linearGradient id="paint46_linear" x1="449.023" y1="253.296" x2="515.306" y2="253.296" gradientUnits="userSpaceOnUse">
<stop stop-color="#1C8EF4"/>
<stop offset="1" stop-color="#00CFDD"/>
</linearGradient>
<linearGradient id="paint47_linear" x1="449.023" y1="269.724" x2="484.194" y2="269.724" gradientUnits="userSpaceOnUse">
<stop stop-color="#1C8EF4"/>
<stop offset="1" stop-color="#00CFDD"/>
</linearGradient>
<linearGradient id="paint48_linear" x1="449.023" y1="286.151" x2="502.587" y2="286.151" gradientUnits="userSpaceOnUse">
<stop stop-color="#1C8EF4"/>
<stop offset="1" stop-color="#00CFDD"/>
</linearGradient>
<linearGradient id="paint49_linear" x1="449.023" y1="302.579" x2="529.589" y2="302.579" gradientUnits="userSpaceOnUse">
<stop stop-color="#1C8EF4"/>
<stop offset="1" stop-color="#00CFDD"/>
</linearGradient>
<linearGradient id="paint50_linear" x1="237.36" y1="135.197" x2="321.363" y2="135.197" gradientUnits="userSpaceOnUse">
<stop stop-color="#A77EF7"/>
<stop offset="1" stop-color="#5E65D6"/>
</linearGradient>
<linearGradient id="paint51_linear" x1="391.154" y1="57.8401" x2="462.438" y2="57.8401" gradientUnits="userSpaceOnUse">
<stop offset="0.0102" stop-color="#FFD568"/>
<stop offset="0.4949" stop-color="#FFAA41"/>
<stop offset="1" stop-color="#FF6438"/>
</linearGradient>
<linearGradient id="paint52_linear" x1="696.637" y1="498.245" x2="688.193" y2="508.962" gradientUnits="userSpaceOnUse">
<stop stop-color="#8A3D28"/>
<stop offset="1" stop-color="#5B2015"/>
</linearGradient>
<linearGradient id="paint53_linear" x1="627.9" y1="498.437" x2="635.477" y2="506.813" gradientUnits="userSpaceOnUse">
<stop stop-color="#8A3D28"/>
<stop offset="1" stop-color="#5B2015"/>
</linearGradient>
<linearGradient id="paint54_linear" x1="621.212" y1="413.673" x2="655.62" y2="408.779" gradientUnits="userSpaceOnUse">
<stop stop-color="#4B81FF"/>
<stop offset="1" stop-color="#2848D5"/>
</linearGradient>
<linearGradient id="paint55_linear" x1="651.088" y1="418.34" x2="700.992" y2="399.394" gradientUnits="userSpaceOnUse">
<stop stop-color="#4B81FF"/>
<stop offset="1" stop-color="#2848D5"/>
</linearGradient>
<linearGradient id="paint56_linear" x1="631.874" y1="234.983" x2="630.813" y2="245.973" gradientUnits="userSpaceOnUse">
<stop stop-color="#FFAC7D"/>
<stop offset="1" stop-color="#EA7025"/>
</linearGradient>
<linearGradient id="paint57_linear" x1="589.302" y1="270.396" x2="639.184" y2="270.396" gradientUnits="userSpaceOnUse">
<stop stop-color="#9D58FF"/>
<stop offset="1" stop-color="#4801E4"/>
</linearGradient>
<linearGradient id="paint58_linear" x1="630.685" y1="295.817" x2="688.204" y2="295.817" gradientUnits="userSpaceOnUse">
<stop stop-color="#9D58FF"/>
<stop offset="1" stop-color="#4801E4"/>
</linearGradient>
<linearGradient id="paint59_linear" x1="606.883" y1="298.902" x2="624.425" y2="312.268" gradientUnits="userSpaceOnUse">
<stop stop-color="#FFAC7D"/>
<stop offset="1" stop-color="#EA7025"/>
</linearGradient>
<linearGradient id="paint60_linear" x1="652.715" y1="256.451" x2="660.749" y2="254.475" gradientUnits="userSpaceOnUse">
<stop stop-color="#FFAC7D"/>
<stop offset="1" stop-color="#EA7025"/>
</linearGradient>
<linearGradient id="paint61_linear" x1="650.689" y1="267.513" x2="656.573" y2="267.513" gradientUnits="userSpaceOnUse">
<stop stop-color="#FFAC7D"/>
<stop offset="1" stop-color="#EA7025"/>
</linearGradient>
<linearGradient id="paint62_linear" x1="643.283" y1="241.635" x2="664.366" y2="242.03" gradientUnits="userSpaceOnUse">
<stop stop-color="#FFAC7D"/>
<stop offset="1" stop-color="#EA7025"/>
</linearGradient>
<linearGradient id="paint63_linear" x1="667.283" y1="213.405" x2="652.709" y2="229.425" gradientUnits="userSpaceOnUse">
<stop stop-color="#C65842"/>
<stop offset="1" stop-color="#982E14"/>
</linearGradient>
<linearGradient id="paint64_linear" x1="659.68" y1="375.456" x2="668.006" y2="368.385" gradientUnits="userSpaceOnUse">
<stop stop-color="#FFAC7D"/>
<stop offset="1" stop-color="#EA7025"/>
</linearGradient>
<linearGradient id="paint65_linear" x1="665.197" y1="317.864" x2="703.389" y2="317.864" gradientUnits="userSpaceOnUse">
<stop stop-color="#9D58FF"/>
<stop offset="1" stop-color="#4801E4"/>
</linearGradient>
<linearGradient id="paint66_linear" x1="255.864" y1="233.261" x2="354.728" y2="213.166" gradientUnits="userSpaceOnUse">
<stop stop-color="#FFAEAE"/>
<stop offset="1" stop-color="#F47272"/>
</linearGradient>
<linearGradient id="paint67_linear" x1="177.247" y1="241.221" x2="224.766" y2="262.964" gradientUnits="userSpaceOnUse">
<stop stop-color="#C65842"/>
<stop offset="1" stop-color="#982E14"/>
</linearGradient>
<linearGradient id="paint68_linear" x1="248.877" y1="492.617" x2="236.577" y2="500" gradientUnits="userSpaceOnUse">
<stop stop-color="#8A3D28"/>
<stop offset="1" stop-color="#5B2015"/>
</linearGradient>
<linearGradient id="paint69_linear" x1="207.014" y1="486.632" x2="194.495" y2="491.958" gradientUnits="userSpaceOnUse">
<stop stop-color="#8A3D28"/>
<stop offset="1" stop-color="#5B2015"/>
</linearGradient>
<linearGradient id="paint70_linear" x1="243.532" y1="399.321" x2="202.544" y2="387.764" gradientUnits="userSpaceOnUse">
<stop stop-color="#9D58FF"/>
<stop offset="1" stop-color="#4801E4"/>
</linearGradient>
<linearGradient id="paint71_linear" x1="233.332" y1="419.66" x2="205.41" y2="411.788" gradientUnits="userSpaceOnUse">
<stop stop-color="#9D58FF"/>
<stop offset="1" stop-color="#4801E4"/>
</linearGradient>
<linearGradient id="paint72_linear" x1="245.432" y1="240.114" x2="246.445" y2="259.804" gradientUnits="userSpaceOnUse">
<stop stop-color="#FF8D88"/>
<stop offset="1" stop-color="#F3658E"/>
</linearGradient>
<linearGradient id="paint73_linear" x1="256.695" y1="395.315" x2="201.097" y2="392.894" gradientUnits="userSpaceOnUse">
<stop stop-color="#9D58FF"/>
<stop offset="1" stop-color="#4801E4"/>
</linearGradient>
<linearGradient id="paint74_linear" x1="215.197" y1="239.257" x2="223.229" y2="232.334" gradientUnits="userSpaceOnUse">
<stop stop-color="#FFAEAE"/>
<stop offset="1" stop-color="#F47272"/>
</linearGradient>
<linearGradient id="paint75_linear" x1="217.207" y1="229.872" x2="233.405" y2="214.567" gradientUnits="userSpaceOnUse">
<stop stop-color="#FFAEAE"/>
<stop offset="1" stop-color="#F47272"/>
</linearGradient>
<linearGradient id="paint76_linear" x1="231.67" y1="245.648" x2="205.847" y2="300.657" gradientUnits="userSpaceOnUse">
<stop stop-color="#FF8D88"/>
<stop offset="1" stop-color="#F3658E"/>
</linearGradient>
<linearGradient id="paint77_linear" x1="175.098" y1="285.588" x2="122.529" y2="221.559" gradientUnits="userSpaceOnUse">
<stop stop-color="#FFAEAE"/>
<stop offset="1" stop-color="#F47272"/>
</linearGradient>
<linearGradient id="paint78_linear" x1="187.607" y1="259.309" x2="197.061" y2="272.657" gradientUnits="userSpaceOnUse">
<stop stop-color="#FF8D88"/>
<stop offset="1" stop-color="#F3658E"/>
</linearGradient>
<linearGradient id="paint79_linear" x1="118.06" y1="233.656" x2="112.675" y2="227.54" gradientUnits="userSpaceOnUse">
<stop stop-color="#FFAEAE"/>
<stop offset="1" stop-color="#F47272"/>
</linearGradient>
<linearGradient id="paint80_linear" x1="551.72" y1="129.794" x2="662.058" y2="129.794" gradientUnits="userSpaceOnUse">
<stop stop-color="#FD90DA"/>
<stop offset="1" stop-color="#8E6DFD"/>
</linearGradient>
<linearGradient id="paint81_linear" x1="310.37" y1="435.272" x2="404.328" y2="435.272" gradientUnits="userSpaceOnUse">
<stop stop-color="#A3C6FF"/>
<stop offset="1" stop-color="#D7E7FF"/>
</linearGradient>
<linearGradient id="paint82_linear" x1="375.038" y1="457.372" x2="440.585" y2="457.372" gradientUnits="userSpaceOnUse">
<stop stop-color="#A3C6FF"/>
<stop offset="1" stop-color="#D7E7FF"/>
</linearGradient>
<linearGradient id="paint83_linear" x1="543.042" y1="441.627" x2="598.326" y2="441.627" gradientUnits="userSpaceOnUse">
<stop stop-color="#FD90DA"/>
<stop offset="1" stop-color="#8E6DFD"/>
</linearGradient>
<linearGradient id="paint84_linear" x1="152.977" y1="346.37" x2="149.916" y2="430.732" gradientUnits="userSpaceOnUse">
<stop offset="0.0102" stop-color="#FFD568"/>
<stop offset="0.4949" stop-color="#FFAA41"/>
<stop offset="1" stop-color="#FF6438"/>
</linearGradient>
<linearGradient id="paint85_linear" x1="152.937" y1="420.552" x2="148.836" y2="423.556" gradientUnits="userSpaceOnUse">
<stop stop-color="#D1E8FF"/>
<stop offset="1" stop-color="#EAEFFF"/>
</linearGradient>
<linearGradient id="paint86_linear" x1="170.225" y1="395.475" x2="128.94" y2="425.723" gradientUnits="userSpaceOnUse">
<stop stop-color="#6D6AFE"/>
<stop offset="1" stop-color="#3FB0F7"/>
</linearGradient>
<linearGradient id="paint87_linear" x1="181.331" y1="408.152" x2="150.973" y2="408.671" gradientUnits="userSpaceOnUse">
<stop offset="0.0102" stop-color="#FFD568"/>
<stop offset="0.4949" stop-color="#FFAA41"/>
<stop offset="1" stop-color="#FF6438"/>
</linearGradient>
<linearGradient id="paint88_linear" x1="181.327" y1="407.939" x2="150.97" y2="408.458" gradientUnits="userSpaceOnUse">
<stop offset="0.0102" stop-color="#FFD568"/>
<stop offset="0.4949" stop-color="#FFAA41"/>
<stop offset="1" stop-color="#FF6438"/>
</linearGradient>
</defs>
</svg>
